<svg width="512" height="512" viewBox="0 0 512 512" fill="none" xmlns="http://www.w3.org/2000/svg">
<rect width="512" height="512" rx="95" fill="white"/>
<path d="M252.965 417.722C343.958 417.722 417.722 343.958 417.722 252.965C417.722 161.972 343.958 88.2083 252.965 88.2083C161.972 88.2083 88.208 161.972 88.208 252.965C88.208 343.958 161.972 417.722 252.965 417.722Z" fill="#FCEA2B"/>
<path d="M357.512 293.366C357.599 304.395 355.48 315.33 351.28 325.529C261.81 347.234 169.116 327.965 154.36 324.598C150.357 314.675 148.337 304.065 148.414 293.366H149.202C149.202 293.366 255.22 319.082 356.151 293.867L357.512 293.366Z" fill="white"/>
<path d="M351.284 325.53C338.461 356.117 305.796 377.321 253.217 377.321C200.137 377.321 167.042 355.616 154.363 324.599C169.12 327.965 261.813 347.235 351.284 325.53Z" fill="#EA5A47"/>
<path d="M252.965 417.722C343.958 417.722 417.722 343.958 417.722 252.965C417.722 161.972 343.958 88.2083 252.965 88.2083C161.972 88.2083 88.208 161.972 88.208 252.965C88.208 343.958 161.972 417.722 252.965 417.722Z" stroke="black" stroke-width="2" stroke-linecap="round" stroke-linejoin="round"/>
<path d="M199.749 254.548C211.617 254.548 221.239 237.217 221.239 215.839C221.239 194.46 211.617 177.129 199.749 177.129C187.88 177.129 178.259 194.46 178.259 215.839C178.259 237.217 187.88 254.548 199.749 254.548Z" fill="black"/>
<path d="M306.221 254.584C318.09 254.584 327.712 237.254 327.712 215.875C327.712 194.497 318.09 177.166 306.221 177.166C294.353 177.166 284.731 194.497 284.731 215.875C284.731 237.254 294.353 254.584 306.221 254.584Z" fill="black"/>
<path d="M357.504 293.361C357.59 304.39 355.471 315.326 351.271 325.525C261.801 347.23 169.108 327.96 154.351 324.593C150.348 314.671 148.328 304.06 148.405 293.361H149.193C149.193 293.361 255.211 319.078 356.142 293.863L357.504 293.361Z" stroke="black" stroke-width="2" stroke-linecap="round" stroke-linejoin="round"/>
<path d="M351.312 325.523C338.49 356.11 305.825 377.314 253.246 377.314C200.165 377.314 167.071 355.609 154.392 324.592C169.148 327.958 261.841 347.228 351.312 325.523Z" stroke="black" stroke-width="2" stroke-linecap="round" stroke-linejoin="round"/>
</svg>
